<svg xmlns="http://www.w3.org/2000/svg" viewBox="0 0 720 400" preserveAspectRatio="xMidYMid slice"><defs>
<linearGradient id="sky" x1="0" y1="0" x2="1" y2="1"><stop stop-color="#142f4b"/><stop offset=".5" stop-color="#0b172c"/><stop offset="1" stop-color="#030a17"/></linearGradient>
<radialGradient id="glow"><stop stop-color="#22a7ac" stop-opacity=".62"/><stop offset="1" stop-color="#22a7ac" stop-opacity="0"/></radialGradient>
<linearGradient id="gold" x1="0" y1="0" x2="1" y2="1"><stop stop-color="#ffe29b"/><stop offset=".5" stop-color="#e5a52c"/><stop offset="1" stop-color="#996313"/></linearGradient>
</defs><rect width="720" height="400" fill="url(#sky)"/><circle cx="530" cy="145" r="250" fill="url(#glow)"/><g opacity=".25" stroke="#8fa9c5" fill="none"><path d="M0 305 Q360 145 720 305" stroke-width="6"/><path d="M0 332 Q360 182 720 332" stroke-width="4"/><path d="M0 362 Q360 220 720 362" stroke-width="3"/></g><g fill="#ffd986" opacity=".65"><circle cx="45" cy="58" r="4"/><circle cx="91" cy="61" r="3"/><circle cx="143" cy="52" r="5"/><circle cx="580" cy="37" r="4"/><circle cx="634" cy="50" r="3"/><circle cx="689" cy="60" r="5"/></g><g transform="translate(120 62)"><g fill="#122f48" stroke="#72dcdf" stroke-width="10"><path d="M105 40 Q10 55 10 154 L46 204 H180 L200 134 Q198 43 105 40Z"/><path d="M310 40 Q405 55 405 154 L369 204 H235 L215 134 Q217 43 310 40Z"/></g><path d="M38 143 H160 L182 180 H62Z" fill="#07131e" stroke="#f7d480" stroke-width="7"/><path d="M377 143 H255 L233 180 H353Z" fill="#07131e" stroke="#f7d480" stroke-width="7"/><circle cx="205" cy="245" r="33" fill="url(#gold)"/><path d="M205 220 L205 269 M180 245 H230" stroke="#102033" stroke-width="9"/></g></svg>